Coordinates
version=1
nRows=14
nColumns=24
inDegrees=yes

Units are S.I. units (second, meters, Newtons, ...)
Angles are in degrees.

endheader
time	pelvis_tilt	pelvis_list	pelvis_rotation	pelvis_tx	pelvis_ty	pelvis_tz	hip_flexion_r	hip_adduction_r	hip_rotation_r	knee_angle_r	ankle_angle_r	subtalar_angle_r	mtp_angle_r	hip_flexion_l	hip_adduction_l	hip_rotation_l	knee_angle_l	ankle_angle_l	subtalar_angle_l	mtp_angle_l	lumbar_extension	lumbar_bending	lumbar_rotation
      0.81650000	     -0.46608346	     -2.60794605	      1.15673318	     -0.47519733	      0.99948243	      0.32157377	     12.81453679	      6.63362694	      1.49229566	    -21.35780526	     11.11372699	    -13.30340210	     -0.88496471	     14.71973404	     -3.68317079	     -4.29432699	    -71.09610257	     -7.32014019	     -9.42612867	      5.02386537	    -12.29039977	     10.66538633	     -0.79858504
      0.82066667	     -0.36457480	     -2.46667068	      1.15280944	     -0.47034559	      1.00062878	      0.32187424	     12.16863864	      6.52738020	      1.64280388	    -20.89884928	     11.12725105	    -13.41856566	     -0.90583171	     15.19126787	     -3.60547253	     -4.37916814	    -70.96800363	     -6.93361801	     -9.78793978	      4.81136387	    -12.47352292	     10.37090686	     -0.35262460
      0.82483333	     -0.29166438	     -2.33252822	      1.14999654	     -0.46548717	      1.00168856	      0.32215045	     11.55661473	      6.42066146	      1.76305351	    -20.44607594	     11.16357252	    -13.48335025	     -0.92740260	     15.68602024	     -3.53181582	     -4.45859339	    -70.79988207	     -6.49273336	    -10.07447178	      4.57614837	    -12.59357025	     10.12324296	     -0.04308740
      0.82900000	     -0.25160349	     -2.18201300	      1.14748458	     -0.46065769	      1.00267706	      0.32238980	     10.99459932	      6.28778113	      1.85629351	    -20.02188866	     11.19630047	    -13.49500500	     -0.93937774	     16.20812973	     -3.42574620	     -4.52722028	    -70.58202388	     -6.04617428	    -10.37283496	      4.44864587	    -12.67360617	      9.88041928	      0.12987951
      0.83316667	     -0.14605845	     -2.02824191	      1.13360936	     -0.45576011	      1.00375683	      0.32266544	     10.32823439	      6.15688771	      1.97529080	    -19.53461326	     11.25961592	    -13.54155986	     -0.95846835	     16.62929965	     -3.33032528	     -4.62013150	    -70.28361386	     -5.68052188	    -10.61362199	      4.24009653	    -12.81368851	      9.60347370	      0.48001615
      0.83733333	     -0.10579074	     -1.87363041	      1.11978534	     -0.45092735	      1.00468900	      0.32289545	      9.75867073	      6.01537296	      2.06331649	    -19.09270876	     11.27590549	    -13.54534066	     -0.97187551	     17.12202475	     -3.21501147	     -4.69232739	    -69.95760814	     -5.23506106	    -10.85149510	      4.10399653	    -12.89842218	      9.35134416	      0.68606039
      0.84150000	     -0.03740371	     -1.70877297	      1.10207511	     -0.44606009	      1.00564158	      0.32313418	      9.14424307	      5.86263942	      2.15734335	    -18.62569666	     11.32046099	    -13.54803192	     -0.98519601	     17.56313914	     -3.09225523	     -4.77343028	    -69.56644966	     -4.83529431	    -11.05105331	      3.96738883	    -13.00322904	      9.07867458	      0.94152408
      0.84566667	      0.06602283	     -1.55873273	      1.08431001	     -0.44116696	      1.00662186	      0.32337173	      8.47616829	      5.72518832	      2.24735693	    -18.12619573	     11.39050311	    -13.56147472	     -1.00529789	     17.94900255	     -2.99141122	     -4.85995084	    -69.11966047	     -4.46459217	    -11.20024940	      3.75484484	    -13.13691430	      8.81886154	      1.27691521
      0.84983333	      0.11916992	     -1.39216009	      1.06729236	     -0.43631079	      1.00748296	      0.32358002	      7.87955368	      5.56300702	      2.31814052	    -17.65814657	     11.43107070	    -13.55156448	     -1.02428206	     18.38173275	     -2.85541782	     -4.92652060	    -68.62978216	     -4.05481841	    -11.33168859	      3.56561558	    -13.22415583	      8.54224891	      1.52089938
      0.85400000	      0.15010484	     -1.23351104	      1.05137824	     -0.43147692	      1.00825968	      0.32374541	      7.31572063	      5.40206960	      2.36710536	    -17.20313315	     11.44345492	    -13.50260928	     -1.03604844	     18.83033119	     -2.71706381	     -4.97796772	    -68.10154416	     -3.61552672	    -11.44775784	      3.45987355	    -13.28737910	      8.30824679	      1.68520727
      0.85816667	      0.24884378	     -1.08549580	      1.03450310	     -0.42659731	      1.00909910	      0.32394137	      6.65501026	      5.25656290	      2.42614387	    -16.70398793	     11.52463041	    -13.47836639	     -1.05423242	     19.18354035	     -2.60356132	     -5.04433057	    -67.51337118	     -3.22200680	    -11.50533209	      3.28115150	    -13.42019143	      8.04860580	      1.97930527
      0.86233333	      0.28844196	     -0.94602227	      1.02302933	     -0.42174686	      1.00979898	      0.32409913	      6.07006201	      5.11417598	      2.47033450	    -16.22329233	     11.55650912	    -13.45233305	     -1.07249681	     19.59643702	     -2.48401016	     -5.08355706	    -66.89197049	     -2.79221965	    -11.52546026	      3.11491219	    -13.49036057	      7.81663229	      2.20973024
      0.86650000	      0.33887310	     -0.79006668	      1.00909950	     -0.41688893	      1.01049238	      0.32423485	      5.47476179	      4.94967705	      2.49935680	    -15.74620786	     11.60056957	    -13.39581037	     -1.08906929	     19.97641314	     -2.33971968	     -5.12174551	    -66.20843275	     -2.38077563	    -11.54959010	      2.96200290	    -13.56935370	      7.57415432	      2.41101321
      0.87066667	      0.38236307	     -0.67020682	      0.99433022	     -0.41205482	      1.01109848	      0.32436534	      4.88560485	      4.82406865	      2.53878280	    -15.25892013	     11.62594082	    -13.33658136	     -1.10963117	     20.35998665	     -2.23209062	     -5.14626443	    -65.50131047	     -1.93493382	    -11.53761681	      2.76660579	    -13.65765930	      7.36889331	      2.63489406
